<?xml version="1.0" encoding="UTF-8" standalone="no"?>
<svg
   xmlns:dc="http://purl.org/dc/elements/1.1/"
   xmlns:cc="http://creativecommons.org/ns#"
   xmlns:rdf="http://www.w3.org/1999/02/22-rdf-syntax-ns#"
   xmlns:svg="http://www.w3.org/2000/svg"
   xmlns="http://www.w3.org/2000/svg"
   viewBox="0 0 256.24158 64.806557"
   height="64.806557"
   width="256.24158"
   xml:space="preserve"
   id="svg2"
   version="1.1"><metadata
     id="metadata8"><rdf:RDF><cc:Work
         rdf:about=""><dc:format>image/svg+xml</dc:format><dc:type
           rdf:resource="http://purl.org/dc/dcmitype/StillImage" /></cc:Work></rdf:RDF></metadata><defs
     id="defs6"><linearGradient
       id="linearGradient28"
       spreadMethod="pad"
       gradientTransform="matrix(31.725124,0,0,-31.725124,7.524226,37.420179)"
       gradientUnits="userSpaceOnUse"
       y2="0"
       x2="1"
       y1="0"
       x1="0"><stop
         id="stop24"
         offset="0"
         style="stop-opacity:1;stop-color:#00a2cc" /><stop
         id="stop26"
         offset="1"
         style="stop-opacity:1;stop-color:#cae5f0" /></linearGradient><clipPath
       id="clipPath38"
       clipPathUnits="userSpaceOnUse"><path
         id="path36"
         d="M 0,48.605 H 22.371 V 26.234 H 0 Z" /></clipPath><clipPath
       id="clipPath48"
       clipPathUnits="userSpaceOnUse"><path
         id="path46"
         d="M 0,26 H 23 V 49 H 0 Z" /></clipPath><clipPath
       id="clipPath60"
       clipPathUnits="userSpaceOnUse"><path
         id="path58"
         d="M 3.457,45.148 H 18.914 V 29.691 H 3.457 Z" /></clipPath><clipPath
       id="clipPath70"
       clipPathUnits="userSpaceOnUse"><path
         id="path68"
         d="M 3,30 H 19 V 46 H 3 Z" /></clipPath><clipPath
       id="clipPath82"
       clipPathUnits="userSpaceOnUse"><path
         id="path80"
         d="m 5.695,42.91 h 10.98 V 31.93 H 5.695 Z" /></clipPath><clipPath
       id="clipPath92"
       clipPathUnits="userSpaceOnUse"><path
         id="path90"
         d="M 5,32 H 17 V 44 H 5 Z" /></clipPath></defs><g
     transform="matrix(1.3333333,0,0,-1.3333333,0,64.806559)"
     id="g10"><g
       id="g12"><g
         id="g14"><g
           id="g16"><g
             id="g22"><path
               id="path30"
               style="fill:url(#linearGradient28);stroke:none"
               d="m 11.184,41.081 c -2.02,0 -3.661,-1.64 -3.661,-3.66 0,-2.023 1.641,-3.664 3.661,-3.664 H 39.25 v 7.324 z" /></g></g></g></g><g
       id="g32"><g
         clip-path="url(#clipPath38)"
         id="g34"><g
           transform="translate(0,-0.395081)"
           id="g40"><g
             id="g42"><g
               clip-path="url(#clipPath48)"
               id="g44"><g
                 id="g50"><path
                   id="path52"
                   style="fill:#cae5f0;fill-opacity:1;fill-rule:nonzero;stroke:none"
                   d="M 22.371,37.816 C 22.371,31.637 17.363,26.629 11.184,26.629 5.008,26.629 0,31.637 0,37.816 0,43.992 5.008,49 11.184,49 17.363,49 22.371,43.992 22.371,37.816" /></g></g></g></g></g></g><g
       id="g54"><g
         clip-path="url(#clipPath60)"
         id="g56"><g
           transform="translate(0,-0.395081)"
           id="g62"><g
             id="g64"><g
               clip-path="url(#clipPath70)"
               id="g66"><g
                 id="g72"><path
                   id="path74"
                   style="fill:#5fbedc;fill-opacity:1;fill-rule:nonzero;stroke:none"
                   d="m 18.914,37.816 c 0,-4.269 -3.461,-7.73 -7.73,-7.73 -4.266,0 -7.727,3.461 -7.727,7.73 0,4.266 3.461,7.727 7.727,7.727 4.269,0 7.73,-3.461 7.73,-7.727" /></g></g></g></g></g></g><g
       id="g76"><g
         clip-path="url(#clipPath82)"
         id="g78"><g
           transform="translate(0,-0.395081)"
           id="g84"><g
             id="g86"><g
               clip-path="url(#clipPath92)"
               id="g88"><g
                 id="g94"><path
                   id="path96"
                   style="fill:#00a2cc;fill-opacity:1;fill-rule:nonzero;stroke:none"
                   d="m 16.676,37.816 c 0,-3.035 -2.457,-5.492 -5.492,-5.492 -3.032,0 -5.489,2.457 -5.489,5.492 0,3.032 2.457,5.489 5.489,5.489 3.035,0 5.492,-2.457 5.492,-5.489" /></g></g></g></g></g></g><g
       id="g98"><path
         id="path100"
         style="fill:#00a2cc;fill-opacity:1;fill-rule:nonzero;stroke:none"
         d="m 132.188,8.136 c -6.739,0 -12.2,5.645 -12.2,12.61 0,6.96 5.461,12.609 12.2,12.609 6.738,0 12.203,-5.649 12.203,-12.609 0,-6.965 -5.465,-12.61 -12.203,-12.61 m 0,33.352 c -11.344,0 -20.54,-9.289 -20.54,-20.742 0,-11.457 9.196,-20.747 20.54,-20.747 11.343,0 20.539,9.29 20.539,20.747 0,11.453 -9.196,20.742 -20.539,20.742" /><path
         id="path102"
         style="fill:#00a2cc;fill-opacity:1;fill-rule:nonzero;stroke:none"
         d="m 81.789,16.675 h 20.879 V 9.761 H 81.789 Z" /><path
         id="path104"
         style="fill:#00a2cc;fill-opacity:1;fill-rule:nonzero;stroke:none"
         d="M 92.906,28.886 91.297,24.812 80.527,0.41 h -8.941 l 17.648,38.691 c 0.641,1.41 2.059,2.387 3.704,2.387 1.648,0 3.066,-0.977 3.707,-2.387 L 114.293,0.41 h -8.941 l -10.774,24.402 -1.609,4.074 z" /><path
         id="path106"
         style="fill:#00a2cc;fill-opacity:1;fill-rule:nonzero;stroke:none"
         d="m 164.918,39.874 c -0.742,0.981 -1.918,1.614 -3.242,1.614 -2.246,0 -4.067,-1.821 -4.067,-4.067 V 0.406 h 8.133 v 20.336 l -0.039,6.101 h 0.039 l 4.406,-6.101 14.723,-19.129 c 0.742,-0.981 1.918,-1.614 3.242,-1.614 2.246,0 4.067,1.821 4.067,4.067 v 37.015 h -8.133 V 20.742 l 0.039,-6.098 h -0.039 l -4.406,6.098 z" /><path
         id="path108"
         style="fill:#00a2cc;fill-opacity:1;fill-rule:nonzero;stroke:none"
         d="M 55.84,21.019 63.043,13.183 74.035,0.406 H 63.246 L 47.195,20.187 c -0.269,0.324 -0.422,0.723 -0.422,1.168 0,1.012 0.821,1.828 1.832,1.828 h 10.981 c 2.922,0 5.289,2.367 5.289,5.289 0,2.922 -2.367,5.289 -5.289,5.289 H 39.25 c -2.023,0 -3.66,1.637 -3.66,3.66 0,2.02 1.637,3.66 3.66,3.66 h 21.148 c 7.079,0 12.813,-5.644 12.813,-12.609 0,-3.637 -1.563,-6.914 -4.066,-9.215 -2.29,-2.105 -5.204,-3.09 -9.051,-3.09" /></g></g></svg>